<svg width="337" height="223" viewBox="0 0 337 223" fill="none" xmlns="http://www.w3.org/2000/svg">
<path d="M336.5 1V0.5H336H101C45.4954 0.5 0.5 45.4955 0.5 101V221.379V221.879H1H236C291.505 221.879 336.5 176.884 336.5 121.379V1Z" fill="#D9D9D9" fill-opacity="0.1" stroke="#102337"/>
<path d="M58.6005 63.4843C56.2055 65.8756 50.0965 60.1308 52.5005 57.7301C53.9685 56.264 52.3105 54.5892 51.3925 53.3565C49.6695 51.0459 45.8885 54.2362 46.0025 56.2659C46.3655 62.6673 53.6625 70.2529 60.7285 69.5906C62.9385 69.3837 65.4785 65.5956 62.9425 64.2112C61.6755 63.5185 59.9345 62.152 58.6005 63.4833" stroke="white" stroke-width="1.5" stroke-linecap="round" stroke-linejoin="round"/>
<path d="M96.2955 55.3636V67H94.8864V56.8409H94.8182L91.9773 58.7273V57.2955L94.8864 55.3636H96.2955ZM104.169 67.1591C103.389 67.1591 102.7 67.0208 102.101 66.7443C101.506 66.464 101.042 66.0795 100.709 65.5909C100.376 65.0985 100.211 64.5379 100.215 63.9091C100.211 63.4167 100.308 62.9621 100.505 62.5455C100.702 62.125 100.97 61.7746 101.311 61.4943C101.656 61.2102 102.041 61.0303 102.465 60.9545V60.8864C101.908 60.7424 101.465 60.4299 101.135 59.9489C100.806 59.464 100.643 58.9129 100.647 58.2955C100.643 57.7045 100.792 57.1761 101.095 56.7102C101.398 56.2443 101.815 55.8769 102.345 55.608C102.88 55.339 103.488 55.2045 104.169 55.2045C104.844 55.2045 105.446 55.339 105.976 55.608C106.506 55.8769 106.923 56.2443 107.226 56.7102C107.533 57.1761 107.688 57.7045 107.692 58.2955C107.688 58.9129 107.52 59.464 107.186 59.9489C106.857 60.4299 106.419 60.7424 105.874 60.8864V60.9545C106.294 61.0303 106.673 61.2102 107.01 61.4943C107.347 61.7746 107.616 62.125 107.817 62.5455C108.018 62.9621 108.12 63.4167 108.124 63.9091C108.12 64.5379 107.95 65.0985 107.613 65.5909C107.279 66.0795 106.815 66.464 106.22 66.7443C105.63 67.0208 104.946 67.1591 104.169 67.1591ZM104.169 65.9091C104.696 65.9091 105.15 65.8239 105.533 65.6534C105.916 65.483 106.211 65.2424 106.419 64.9318C106.628 64.6212 106.734 64.2576 106.738 63.8409C106.734 63.4015 106.62 63.0133 106.397 62.6761C106.173 62.339 105.868 62.0739 105.482 61.8807C105.099 61.6875 104.662 61.5909 104.169 61.5909C103.673 61.5909 103.23 61.6875 102.84 61.8807C102.453 62.0739 102.148 62.339 101.925 62.6761C101.705 63.0133 101.597 63.4015 101.601 63.8409C101.597 64.2576 101.698 64.6212 101.902 64.9318C102.111 65.2424 102.408 65.483 102.794 65.6534C103.181 65.8239 103.639 65.9091 104.169 65.9091ZM104.169 60.3864C104.586 60.3864 104.955 60.303 105.277 60.1364C105.603 59.9697 105.859 59.7367 106.044 59.4375C106.23 59.1383 106.325 58.7879 106.328 58.3864C106.325 57.9924 106.232 57.6496 106.05 57.358C105.868 57.0625 105.616 56.8352 105.294 56.6761C104.972 56.5133 104.597 56.4318 104.169 56.4318C103.734 56.4318 103.353 56.5133 103.027 56.6761C102.702 56.8352 102.45 57.0625 102.272 57.358C102.094 57.6496 102.006 57.9924 102.01 58.3864C102.006 58.7879 102.095 59.1383 102.277 59.4375C102.463 59.7367 102.719 59.9697 103.044 60.1364C103.37 60.303 103.745 60.3864 104.169 60.3864ZM114.897 67.1591C114.041 67.1591 113.312 66.9261 112.709 66.4602C112.107 65.9905 111.647 65.3106 111.329 64.4205C111.011 63.5265 110.851 62.447 110.851 61.1818C110.851 59.9242 111.011 58.8504 111.329 57.9602C111.651 57.0663 112.113 56.3845 112.715 55.9148C113.321 55.4413 114.048 55.2045 114.897 55.2045C115.745 55.2045 116.471 55.4413 117.073 55.9148C117.679 56.3845 118.141 57.0663 118.459 57.9602C118.781 58.8504 118.942 59.9242 118.942 61.1818C118.942 62.447 118.783 63.5265 118.465 64.4205C118.147 65.3106 117.687 65.9905 117.084 66.4602C116.482 66.9261 115.753 67.1591 114.897 67.1591ZM114.897 65.9091C115.745 65.9091 116.404 65.5 116.874 64.6818C117.344 63.8636 117.579 62.697 117.579 61.1818C117.579 60.1742 117.471 59.3163 117.255 58.608C117.043 57.8996 116.736 57.3598 116.334 56.9886C115.937 56.6174 115.457 56.4318 114.897 56.4318C114.056 56.4318 113.399 56.8466 112.925 57.6761C112.452 58.5019 112.215 59.6705 112.215 61.1818C112.215 62.1894 112.321 63.0455 112.533 63.75C112.745 64.4545 113.05 64.9905 113.448 65.358C113.85 65.7254 114.332 65.9091 114.897 65.9091ZM125.697 67.1591C124.841 67.1591 124.112 66.9261 123.509 66.4602C122.907 65.9905 122.447 65.3106 122.129 64.4205C121.811 63.5265 121.651 62.447 121.651 61.1818C121.651 59.9242 121.811 58.8504 122.129 57.9602C122.451 57.0663 122.913 56.3845 123.515 55.9148C124.121 55.4413 124.848 55.2045 125.697 55.2045C126.545 55.2045 127.271 55.4413 127.873 55.9148C128.479 56.3845 128.941 57.0663 129.259 57.9602C129.581 58.8504 129.742 59.9242 129.742 61.1818C129.742 62.447 129.583 63.5265 129.265 64.4205C128.947 65.3106 128.487 65.9905 127.884 66.4602C127.282 66.9261 126.553 67.1591 125.697 67.1591ZM125.697 65.9091C126.545 65.9091 127.204 65.5 127.674 64.6818C128.144 63.8636 128.379 62.697 128.379 61.1818C128.379 60.1742 128.271 59.3163 128.055 58.608C127.843 57.8996 127.536 57.3598 127.134 56.9886C126.737 56.6174 126.257 56.4318 125.697 56.4318C124.856 56.4318 124.199 56.8466 123.725 57.6761C123.252 58.5019 123.015 59.6705 123.015 61.1818C123.015 62.1894 123.121 63.0455 123.333 63.75C123.545 64.4545 123.85 64.9905 124.248 65.358C124.65 65.7254 125.132 65.9091 125.697 65.9091ZM137.724 60.5568V61.8068H132.633V60.5568H137.724ZM144.605 67.1591C143.855 67.1591 143.187 67.0303 142.599 66.7727C142.016 66.5152 141.552 66.1572 141.207 65.6989C140.866 65.2367 140.681 64.7008 140.651 64.0909H142.082C142.113 64.4659 142.241 64.7898 142.469 65.0625C142.696 65.3314 142.993 65.5398 143.361 65.6875C143.728 65.8352 144.135 65.9091 144.582 65.9091C145.082 65.9091 145.526 65.822 145.912 65.6477C146.298 65.4735 146.601 65.2311 146.821 64.9205C147.041 64.6098 147.151 64.25 147.151 63.8409C147.151 63.4129 147.045 63.036 146.832 62.7102C146.62 62.3807 146.31 62.1231 145.901 61.9375C145.491 61.7519 144.991 61.6591 144.401 61.6591H143.469V60.4091H144.401C144.863 60.4091 145.268 60.3258 145.616 60.1591C145.969 59.9924 146.243 59.7576 146.44 59.4545C146.641 59.1515 146.741 58.7955 146.741 58.3864C146.741 57.9924 146.654 57.6496 146.48 57.358C146.306 57.0663 146.06 56.839 145.741 56.6761C145.427 56.5133 145.056 56.4318 144.628 56.4318C144.226 56.4318 143.848 56.5057 143.491 56.6534C143.139 56.7973 142.851 57.0076 142.628 57.2841C142.404 57.5568 142.283 57.8864 142.264 58.2727H140.901C140.923 57.6629 141.107 57.1288 141.452 56.6705C141.796 56.2083 142.247 55.8485 142.804 55.5909C143.365 55.3333 143.98 55.2045 144.651 55.2045C145.37 55.2045 145.988 55.3504 146.503 55.642C147.018 55.9299 147.414 56.3106 147.69 56.7841C147.967 57.2576 148.105 57.7689 148.105 58.3182C148.105 58.9735 147.933 59.5322 147.588 59.9943C147.247 60.4564 146.783 60.7765 146.196 60.9545V61.0455C146.931 61.1667 147.505 61.4792 147.918 61.983C148.33 62.483 148.537 63.1023 148.537 63.8409C148.537 64.4735 148.365 65.0417 148.02 65.5455C147.679 66.0455 147.213 66.4394 146.622 66.7273C146.031 67.0152 145.359 67.1591 144.605 67.1591ZM155.524 67.1591C155.047 67.1515 154.57 67.0606 154.093 66.8864C153.615 66.7121 153.18 66.4186 152.786 66.0057C152.392 65.589 152.076 65.0265 151.837 64.3182C151.598 63.6061 151.479 62.7121 151.479 61.6364C151.479 60.6061 151.576 59.6932 151.769 58.8977C151.962 58.0985 152.242 57.4261 152.61 56.8807C152.977 56.3314 153.42 55.9148 153.939 55.6307C154.462 55.3466 155.051 55.2045 155.706 55.2045C156.358 55.2045 156.937 55.3352 157.445 55.5966C157.956 55.8542 158.373 56.214 158.695 56.6761C159.017 57.1383 159.225 57.6705 159.32 58.2727H157.934C157.805 57.75 157.555 57.3163 157.184 56.9716C156.812 56.6269 156.32 56.4545 155.706 56.4545C154.805 56.4545 154.095 56.8466 153.576 57.6307C153.06 58.4148 152.801 59.5152 152.797 60.9318H152.888C153.1 60.6098 153.352 60.3352 153.644 60.108C153.939 59.8769 154.265 59.6989 154.621 59.5739C154.977 59.4489 155.354 59.3864 155.752 59.3864C156.418 59.3864 157.028 59.553 157.581 59.8864C158.134 60.2159 158.577 60.6723 158.911 61.2557C159.244 61.8352 159.411 62.5 159.411 63.25C159.411 63.9697 159.25 64.6288 158.928 65.2273C158.606 65.822 158.153 66.2955 157.57 66.6477C156.99 66.9962 156.309 67.1667 155.524 67.1591ZM155.524 65.9091C156.002 65.9091 156.43 65.7898 156.809 65.5511C157.191 65.3125 157.492 64.9924 157.712 64.5909C157.935 64.1894 158.047 63.7424 158.047 63.25C158.047 62.7689 157.939 62.3314 157.723 61.9375C157.511 61.5398 157.218 61.2235 156.843 60.9886C156.471 60.7538 156.047 60.6364 155.57 60.6364C155.21 60.6364 154.875 60.7083 154.564 60.8523C154.254 60.9924 153.981 61.1856 153.746 61.4318C153.515 61.678 153.333 61.9602 153.201 62.2784C153.068 62.5928 153.002 62.9242 153.002 63.2727C153.002 63.7348 153.11 64.1667 153.326 64.5682C153.545 64.9697 153.845 65.2936 154.223 65.5398C154.606 65.786 155.04 65.9091 155.524 65.9091ZM166.241 67.1591C165.385 67.1591 164.655 66.9261 164.053 66.4602C163.451 65.9905 162.991 65.3106 162.672 64.4205C162.354 63.5265 162.195 62.447 162.195 61.1818C162.195 59.9242 162.354 58.8504 162.672 57.9602C162.994 57.0663 163.457 56.3845 164.059 55.9148C164.665 55.4413 165.392 55.2045 166.241 55.2045C167.089 55.2045 167.814 55.4413 168.417 55.9148C169.023 56.3845 169.485 57.0663 169.803 57.9602C170.125 58.8504 170.286 59.9242 170.286 61.1818C170.286 62.447 170.127 63.5265 169.809 64.4205C169.491 65.3106 169.03 65.9905 168.428 66.4602C167.826 66.9261 167.097 67.1591 166.241 67.1591ZM166.241 65.9091C167.089 65.9091 167.748 65.5 168.218 64.6818C168.688 63.8636 168.922 62.697 168.922 61.1818C168.922 60.1742 168.814 59.3163 168.599 58.608C168.386 57.8996 168.08 57.3598 167.678 56.9886C167.28 56.6174 166.801 56.4318 166.241 56.4318C165.4 56.4318 164.743 56.8466 164.269 57.6761C163.796 58.5019 163.559 59.6705 163.559 61.1818C163.559 62.1894 163.665 63.0455 163.877 63.75C164.089 64.4545 164.394 64.9905 164.792 65.358C165.193 65.7254 165.676 65.9091 166.241 65.9091ZM176.95 55.2045C177.427 55.2083 177.904 55.2992 178.382 55.4773C178.859 55.6553 179.294 55.9508 179.688 56.3636C180.082 56.7727 180.399 57.3314 180.637 58.0398C180.876 58.7481 180.995 59.6364 180.995 60.7045C180.995 61.7386 180.897 62.6572 180.7 63.4602C180.507 64.2595 180.226 64.9337 179.859 65.483C179.495 66.0322 179.052 66.4489 178.529 66.733C178.01 67.017 177.423 67.1591 176.768 67.1591C176.116 67.1591 175.535 67.0303 175.024 66.7727C174.516 66.5114 174.099 66.1496 173.774 65.6875C173.452 65.2216 173.245 64.6818 173.154 64.0682H174.541C174.666 64.6023 174.914 65.0436 175.285 65.392C175.66 65.7367 176.154 65.9091 176.768 65.9091C177.666 65.9091 178.374 65.517 178.893 64.733C179.416 63.9489 179.677 62.8409 179.677 61.4091H179.586C179.374 61.7273 179.122 62.0019 178.83 62.233C178.539 62.464 178.215 62.642 177.859 62.767C177.503 62.892 177.124 62.9545 176.722 62.9545C176.056 62.9545 175.444 62.7898 174.887 62.4602C174.334 62.1269 173.891 61.6705 173.558 61.0909C173.228 60.5076 173.063 59.8409 173.063 59.0909C173.063 58.3788 173.222 57.7273 173.541 57.1364C173.863 56.5417 174.313 56.0682 174.893 55.7159C175.476 55.3636 176.162 55.1932 176.95 55.2045ZM176.95 56.4545C176.472 56.4545 176.043 56.5739 175.66 56.8125C175.281 57.0473 174.98 57.3655 174.757 57.767C174.537 58.1648 174.427 58.6061 174.427 59.0909C174.427 59.5758 174.533 60.017 174.745 60.4148C174.961 60.8087 175.255 61.1231 175.626 61.358C176.001 61.589 176.427 61.7045 176.904 61.7045C177.264 61.7045 177.599 61.6345 177.91 61.4943C178.221 61.3504 178.491 61.1553 178.722 60.9091C178.957 60.6591 179.141 60.3769 179.274 60.0625C179.406 59.7443 179.472 59.4129 179.472 59.0682C179.472 58.6136 179.363 58.1875 179.143 57.7898C178.927 57.392 178.628 57.0701 178.245 56.8239C177.866 56.5777 177.435 56.4545 176.95 56.4545ZM189.052 60.5568V61.8068H183.961V60.5568H189.052ZM196.28 55.3636V67H194.871V56.8409H194.803L191.962 58.7273V57.2955L194.871 55.3636H196.28ZM204.063 67.1591C203.396 67.1591 202.796 67.0265 202.262 66.7614C201.728 66.4962 201.3 66.1326 200.978 65.6705C200.656 65.2083 200.479 64.6818 200.449 64.0909H201.813C201.866 64.6174 202.104 65.053 202.529 65.3977C202.957 65.7386 203.468 65.9091 204.063 65.9091C204.54 65.9091 204.964 65.7973 205.336 65.5739C205.711 65.3504 206.004 65.0436 206.216 64.6534C206.432 64.2595 206.54 63.8144 206.54 63.3182C206.54 62.8106 206.428 62.358 206.205 61.9602C205.985 61.5587 205.682 61.2424 205.296 61.0114C204.909 60.7803 204.468 60.6629 203.972 60.6591C203.616 60.6553 203.25 60.7102 202.875 60.8239C202.5 60.9337 202.192 61.0758 201.949 61.25L200.631 61.0909L201.336 55.3636H207.381V56.6136H202.517L202.108 60.0455H202.176C202.415 59.8561 202.714 59.6989 203.074 59.5739C203.434 59.4489 203.809 59.3864 204.199 59.3864C204.911 59.3864 205.546 59.5568 206.103 59.8977C206.663 60.2348 207.103 60.697 207.421 61.2841C207.743 61.8712 207.904 62.5417 207.904 63.2955C207.904 64.0379 207.737 64.7008 207.404 65.2841C207.074 65.8636 206.62 66.322 206.04 66.6591C205.461 66.9924 204.801 67.1591 204.063 67.1591ZM214.665 55.2045C215.143 55.2083 215.62 55.2992 216.097 55.4773C216.574 55.6553 217.01 55.9508 217.404 56.3636C217.798 56.7727 218.114 57.3314 218.353 58.0398C218.591 58.7481 218.711 59.6364 218.711 60.7045C218.711 61.7386 218.612 62.6572 218.415 63.4602C218.222 64.2595 217.942 64.9337 217.574 65.483C217.211 66.0322 216.768 66.4489 216.245 66.733C215.726 67.017 215.139 67.1591 214.484 67.1591C213.832 67.1591 213.251 67.0303 212.739 66.7727C212.232 66.5114 211.815 66.1496 211.489 65.6875C211.167 65.2216 210.961 64.6818 210.87 64.0682H212.256C212.381 64.6023 212.629 65.0436 213.001 65.392C213.376 65.7367 213.87 65.9091 214.484 65.9091C215.381 65.9091 216.09 65.517 216.609 64.733C217.131 63.9489 217.393 62.8409 217.393 61.4091H217.302C217.09 61.7273 216.838 62.0019 216.546 62.233C216.254 62.464 215.93 62.642 215.574 62.767C215.218 62.892 214.84 62.9545 214.438 62.9545C213.771 62.9545 213.16 62.7898 212.603 62.4602C212.05 62.1269 211.607 61.6705 211.273 61.0909C210.944 60.5076 210.779 59.8409 210.779 59.0909C210.779 58.3788 210.938 57.7273 211.256 57.1364C211.578 56.5417 212.029 56.0682 212.609 55.7159C213.192 55.3636 213.877 55.1932 214.665 55.2045ZM214.665 56.4545C214.188 56.4545 213.758 56.5739 213.376 56.8125C212.997 57.0473 212.696 57.3655 212.472 57.767C212.252 58.1648 212.143 58.6061 212.143 59.0909C212.143 59.5758 212.249 60.017 212.461 60.4148C212.677 60.8087 212.97 61.1231 213.341 61.358C213.716 61.589 214.143 61.7045 214.62 61.7045C214.98 61.7045 215.315 61.6345 215.626 61.4943C215.936 61.3504 216.207 61.1553 216.438 60.9091C216.673 60.6591 216.857 60.3769 216.989 60.0625C217.122 59.7443 217.188 59.4129 217.188 59.0682C217.188 58.6136 217.078 58.1875 216.859 57.7898C216.643 57.392 216.343 57.0701 215.961 56.8239C215.582 56.5777 215.15 56.4545 214.665 56.4545ZM225.472 67.1591C224.692 67.1591 224.003 67.0208 223.404 66.7443C222.81 66.464 222.346 66.0795 222.012 65.5909C221.679 65.0985 221.514 64.5379 221.518 63.9091C221.514 63.4167 221.611 62.9621 221.808 62.5455C222.005 62.125 222.274 61.7746 222.614 61.4943C222.959 61.2102 223.344 61.0303 223.768 60.9545V60.8864C223.211 60.7424 222.768 60.4299 222.438 59.9489C222.109 59.464 221.946 58.9129 221.95 58.2955C221.946 57.7045 222.096 57.1761 222.399 56.7102C222.702 56.2443 223.118 55.8769 223.649 55.608C224.183 55.339 224.791 55.2045 225.472 55.2045C226.147 55.2045 226.749 55.339 227.279 55.608C227.81 55.8769 228.226 56.2443 228.529 56.7102C228.836 57.1761 228.991 57.7045 228.995 58.2955C228.991 58.9129 228.823 59.464 228.489 59.9489C228.16 60.4299 227.722 60.7424 227.177 60.8864V60.9545C227.597 61.0303 227.976 61.2102 228.313 61.4943C228.65 61.7746 228.919 62.125 229.12 62.5455C229.321 62.9621 229.423 63.4167 229.427 63.9091C229.423 64.5379 229.253 65.0985 228.916 65.5909C228.582 66.0795 228.118 66.464 227.524 66.7443C226.933 67.0208 226.249 67.1591 225.472 67.1591ZM225.472 65.9091C225.999 65.9091 226.453 65.8239 226.836 65.6534C227.219 65.483 227.514 65.2424 227.722 64.9318C227.931 64.6212 228.037 64.2576 228.041 63.8409C228.037 63.4015 227.923 63.0133 227.7 62.6761C227.476 62.339 227.171 62.0739 226.785 61.8807C226.402 61.6875 225.965 61.5909 225.472 61.5909C224.976 61.5909 224.533 61.6875 224.143 61.8807C223.757 62.0739 223.452 62.339 223.228 62.6761C223.008 63.0133 222.9 63.4015 222.904 63.8409C222.9 64.2576 223.001 64.6212 223.205 64.9318C223.414 65.2424 223.711 65.483 224.097 65.6534C224.484 65.8239 224.942 65.9091 225.472 65.9091ZM225.472 60.3864C225.889 60.3864 226.258 60.303 226.58 60.1364C226.906 59.9697 227.162 59.7367 227.347 59.4375C227.533 59.1383 227.628 58.7879 227.632 58.3864C227.628 57.9924 227.535 57.6496 227.353 57.358C227.171 57.0625 226.919 56.8352 226.597 56.6761C226.275 56.5133 225.9 56.4318 225.472 56.4318C225.037 56.4318 224.656 56.5133 224.33 56.6761C224.005 56.8352 223.753 57.0625 223.575 57.358C223.397 57.6496 223.31 57.9924 223.313 58.3864C223.31 58.7879 223.399 59.1383 223.58 59.4375C223.766 59.7367 224.022 59.9697 224.347 60.1364C224.673 60.303 225.048 60.3864 225.472 60.3864Z" fill="white"/>
<path fill-rule="evenodd" clip-rule="evenodd" d="M53.172 111.396L56.002 113.233L58.73 111.447L64.845 117.171C64.6837 117.221 64.513 117.247 64.333 117.247H47.667C47.447 117.247 47.237 117.207 47.044 117.134L53.172 111.396ZM66 106.692V115.666C66 115.9 65.946 116.122 65.85 116.322L59.856 110.71L66 106.692ZM46 106.742L52.042 110.663L46.106 116.222C46.0365 116.044 46.0006 115.855 46 115.666V106.742ZM64.333 103.014C65.253 103.014 66 103.722 66 104.596V105.152L55.998 111.694L46 105.206V104.596C46 103.723 46.746 103.014 47.667 103.014H64.333Z" fill="white"/>
<path d="M92.2273 115.631V106.904H93.5227V108.267H93.6364C93.8182 107.801 94.1117 107.44 94.517 107.182C94.9223 106.921 95.4091 106.79 95.9773 106.79C96.553 106.79 97.0322 106.921 97.4148 107.182C97.8011 107.44 98.1023 107.801 98.3182 108.267H98.4091C98.6326 107.816 98.9678 107.459 99.4148 107.193C99.8617 106.924 100.398 106.79 101.023 106.79C101.803 106.79 102.441 107.034 102.938 107.523C103.434 108.008 103.682 108.763 103.682 109.79V115.631H102.341V109.79C102.341 109.146 102.165 108.686 101.812 108.409C101.46 108.133 101.045 107.994 100.568 107.994C99.9545 107.994 99.4792 108.18 99.142 108.551C98.8049 108.919 98.6364 109.385 98.6364 109.949V115.631H97.2727V109.654C97.2727 109.157 97.1117 108.758 96.7898 108.455C96.4678 108.148 96.053 107.994 95.5455 107.994C95.197 107.994 94.8712 108.087 94.5682 108.273C94.2689 108.459 94.0265 108.716 93.8409 109.046C93.6591 109.371 93.5682 109.748 93.5682 110.176V115.631H92.2273ZM110.593 115.813C109.752 115.813 109.026 115.627 108.416 115.256C107.81 114.881 107.343 114.358 107.013 113.688C106.687 113.013 106.524 112.229 106.524 111.335C106.524 110.441 106.687 109.654 107.013 108.972C107.343 108.286 107.801 107.752 108.388 107.369C108.979 106.983 109.668 106.79 110.456 106.79C110.911 106.79 111.36 106.866 111.803 107.017C112.246 107.169 112.649 107.415 113.013 107.756C113.377 108.093 113.666 108.54 113.882 109.097C114.098 109.654 114.206 110.339 114.206 111.154V111.722H107.479V110.563H112.843C112.843 110.07 112.744 109.631 112.547 109.244C112.354 108.858 112.077 108.553 111.718 108.33C111.362 108.106 110.941 107.994 110.456 107.994C109.922 107.994 109.46 108.127 109.07 108.392C108.684 108.654 108.386 108.994 108.178 109.415C107.97 109.835 107.865 110.286 107.865 110.767V111.54C107.865 112.199 107.979 112.758 108.206 113.216C108.437 113.671 108.757 114.017 109.166 114.256C109.576 114.491 110.051 114.608 110.593 114.608C110.945 114.608 111.263 114.559 111.547 114.46C111.835 114.358 112.083 114.207 112.291 114.006C112.5 113.801 112.661 113.548 112.774 113.244L114.07 113.608C113.934 114.048 113.704 114.434 113.382 114.767C113.06 115.097 112.663 115.354 112.189 115.54C111.716 115.722 111.184 115.813 110.593 115.813ZM120.569 119.085C119.921 119.085 119.364 119.002 118.898 118.835C118.432 118.673 118.044 118.457 117.734 118.188C117.427 117.923 117.182 117.638 117.001 117.335L118.069 116.585C118.19 116.744 118.343 116.926 118.529 117.131C118.715 117.339 118.968 117.519 119.29 117.671C119.616 117.826 120.042 117.904 120.569 117.904C121.273 117.904 121.855 117.733 122.313 117.392C122.771 117.051 123.001 116.517 123.001 115.79V114.017H122.887C122.788 114.176 122.648 114.373 122.466 114.608C122.288 114.839 122.031 115.046 121.694 115.227C121.36 115.405 120.91 115.494 120.341 115.494C119.637 115.494 119.004 115.328 118.444 114.994C117.887 114.661 117.446 114.176 117.12 113.54C116.798 112.904 116.637 112.131 116.637 111.222C116.637 110.328 116.794 109.549 117.109 108.887C117.423 108.22 117.86 107.705 118.421 107.341C118.982 106.974 119.629 106.79 120.364 106.79C120.932 106.79 121.383 106.885 121.716 107.074C122.054 107.26 122.311 107.472 122.489 107.71C122.671 107.945 122.811 108.138 122.91 108.29H123.046V106.904H124.341V115.881C124.341 116.631 124.171 117.241 123.83 117.71C123.493 118.184 123.038 118.53 122.466 118.75C121.898 118.974 121.266 119.085 120.569 119.085ZM120.523 114.29C121.061 114.29 121.516 114.167 121.887 113.921C122.258 113.674 122.54 113.32 122.734 112.858C122.927 112.396 123.023 111.843 123.023 111.199C123.023 110.57 122.929 110.015 122.739 109.534C122.55 109.053 122.27 108.676 121.898 108.404C121.527 108.131 121.069 107.994 120.523 107.994C119.955 107.994 119.482 108.138 119.103 108.426C118.728 108.714 118.446 109.101 118.256 109.585C118.071 110.07 117.978 110.608 117.978 111.199C117.978 111.805 118.073 112.341 118.262 112.807C118.455 113.269 118.739 113.633 119.114 113.898C119.493 114.159 119.963 114.29 120.523 114.29ZM130.164 115.835C129.611 115.835 129.109 115.731 128.659 115.523C128.208 115.311 127.85 115.006 127.585 114.608C127.32 114.207 127.187 113.722 127.187 113.154C127.187 112.654 127.285 112.248 127.482 111.938C127.679 111.623 127.943 111.377 128.272 111.199C128.602 111.021 128.965 110.888 129.363 110.801C129.765 110.71 130.168 110.638 130.573 110.585C131.104 110.517 131.534 110.466 131.863 110.432C132.196 110.394 132.439 110.332 132.59 110.244C132.746 110.157 132.823 110.006 132.823 109.79V109.744C132.823 109.184 132.67 108.748 132.363 108.438C132.06 108.127 131.6 107.972 130.982 107.972C130.342 107.972 129.84 108.112 129.477 108.392C129.113 108.673 128.857 108.972 128.71 109.29L127.437 108.835C127.664 108.305 127.967 107.892 128.346 107.597C128.729 107.298 129.145 107.089 129.596 106.972C130.051 106.851 130.498 106.79 130.937 106.79C131.217 106.79 131.539 106.824 131.903 106.892C132.27 106.957 132.624 107.091 132.965 107.296C133.31 107.5 133.596 107.809 133.823 108.222C134.051 108.635 134.164 109.188 134.164 109.881V115.631H132.823V114.449H132.755C132.664 114.638 132.513 114.841 132.301 115.057C132.088 115.273 131.806 115.457 131.454 115.608C131.102 115.76 130.672 115.835 130.164 115.835ZM130.369 114.631C130.899 114.631 131.346 114.527 131.71 114.318C132.077 114.11 132.354 113.841 132.539 113.512C132.729 113.182 132.823 112.835 132.823 112.472V111.244C132.766 111.313 132.641 111.375 132.448 111.432C132.259 111.485 132.039 111.532 131.789 111.574C131.543 111.612 131.302 111.646 131.068 111.676C130.837 111.703 130.649 111.726 130.505 111.744C130.157 111.79 129.831 111.864 129.528 111.966C129.229 112.065 128.986 112.214 128.801 112.415C128.619 112.612 128.528 112.881 128.528 113.222C128.528 113.688 128.7 114.04 129.045 114.279C129.393 114.513 129.835 114.631 130.369 114.631ZM137.412 115.631V106.904H138.707V108.267H138.821C139.003 107.801 139.296 107.44 139.701 107.182C140.107 106.921 140.593 106.79 141.162 106.79C141.737 106.79 142.217 106.921 142.599 107.182C142.986 107.44 143.287 107.801 143.503 108.267H143.593C143.817 107.816 144.152 107.459 144.599 107.193C145.046 106.924 145.582 106.79 146.207 106.79C146.987 106.79 147.626 107.034 148.122 107.523C148.618 108.008 148.866 108.763 148.866 109.79V115.631H147.525V109.79C147.525 109.146 147.349 108.686 146.997 108.409C146.645 108.133 146.23 107.994 145.753 107.994C145.139 107.994 144.664 108.18 144.326 108.551C143.989 108.919 143.821 109.385 143.821 109.949V115.631H142.457V109.654C142.457 109.157 142.296 108.758 141.974 108.455C141.652 108.148 141.237 107.994 140.73 107.994C140.381 107.994 140.056 108.087 139.753 108.273C139.453 108.459 139.211 108.716 139.025 109.046C138.843 109.371 138.753 109.748 138.753 110.176V115.631H137.412ZM154.686 115.835C154.133 115.835 153.631 115.731 153.18 115.523C152.73 115.311 152.372 115.006 152.107 114.608C151.841 114.207 151.709 113.722 151.709 113.154C151.709 112.654 151.807 112.248 152.004 111.938C152.201 111.623 152.464 111.377 152.794 111.199C153.124 111.021 153.487 110.888 153.885 110.801C154.286 110.71 154.69 110.638 155.095 110.585C155.625 110.517 156.055 110.466 156.385 110.432C156.718 110.394 156.961 110.332 157.112 110.244C157.268 110.157 157.345 110.006 157.345 109.79V109.744C157.345 109.184 157.192 108.748 156.885 108.438C156.582 108.127 156.122 107.972 155.504 107.972C154.864 107.972 154.362 108.112 153.999 108.392C153.635 108.673 153.379 108.972 153.232 109.29L151.959 108.835C152.186 108.305 152.489 107.892 152.868 107.597C153.25 107.298 153.667 107.089 154.118 106.972C154.572 106.851 155.019 106.79 155.459 106.79C155.739 106.79 156.061 106.824 156.425 106.892C156.792 106.957 157.146 107.091 157.487 107.296C157.832 107.5 158.118 107.809 158.345 108.222C158.572 108.635 158.686 109.188 158.686 109.881V115.631H157.345V114.449H157.277C157.186 114.638 157.035 114.841 156.822 115.057C156.61 115.273 156.328 115.457 155.976 115.608C155.624 115.76 155.194 115.835 154.686 115.835ZM154.891 114.631C155.421 114.631 155.868 114.527 156.232 114.318C156.599 114.11 156.875 113.841 157.061 113.512C157.25 113.182 157.345 112.835 157.345 112.472V111.244C157.288 111.313 157.163 111.375 156.97 111.432C156.781 111.485 156.561 111.532 156.311 111.574C156.065 111.612 155.824 111.646 155.589 111.676C155.358 111.703 155.171 111.726 155.027 111.744C154.679 111.79 154.353 111.864 154.05 111.966C153.75 112.065 153.508 112.214 153.322 112.415C153.141 112.612 153.05 112.881 153.05 113.222C153.05 113.688 153.222 114.04 153.567 114.279C153.915 114.513 154.357 114.631 154.891 114.631ZM161.934 115.631V106.904H163.229V108.222H163.32C163.479 107.79 163.767 107.44 164.184 107.171C164.6 106.902 165.07 106.767 165.593 106.767C165.691 106.767 165.814 106.769 165.962 106.773C166.11 106.777 166.221 106.782 166.297 106.79V108.154C166.252 108.142 166.148 108.125 165.985 108.102C165.826 108.076 165.657 108.063 165.479 108.063C165.055 108.063 164.676 108.152 164.343 108.33C164.013 108.504 163.752 108.746 163.559 109.057C163.369 109.364 163.274 109.714 163.274 110.108V115.631H161.934ZM173.029 106.904V108.04H168.506V106.904H173.029ZM169.824 104.813H171.165V113.131C171.165 113.51 171.22 113.794 171.33 113.983C171.444 114.169 171.588 114.294 171.762 114.358C171.94 114.419 172.127 114.449 172.324 114.449C172.472 114.449 172.593 114.441 172.688 114.426C172.783 114.407 172.859 114.392 172.915 114.381L173.188 115.585C173.097 115.619 172.97 115.654 172.807 115.688C172.645 115.726 172.438 115.744 172.188 115.744C171.809 115.744 171.438 115.663 171.074 115.5C170.715 115.337 170.415 115.089 170.177 114.756C169.942 114.423 169.824 114.002 169.824 113.494V104.813ZM179.914 103.994V115.631H178.505V105.472H178.437L175.596 107.358V105.926L178.505 103.994H179.914ZM184.061 115.631V114.608L187.902 110.404C188.352 109.911 188.724 109.483 189.015 109.119C189.307 108.752 189.523 108.407 189.663 108.085C189.807 107.76 189.879 107.419 189.879 107.063C189.879 106.654 189.78 106.299 189.584 106C189.39 105.701 189.125 105.47 188.788 105.307C188.451 105.144 188.072 105.063 187.652 105.063C187.205 105.063 186.815 105.155 186.481 105.341C186.152 105.523 185.896 105.779 185.714 106.108C185.536 106.438 185.447 106.824 185.447 107.267H184.106C184.106 106.585 184.263 105.987 184.578 105.472C184.892 104.957 185.32 104.555 185.862 104.267C186.407 103.979 187.019 103.835 187.697 103.835C188.379 103.835 188.983 103.979 189.51 104.267C190.036 104.555 190.449 104.943 190.748 105.432C191.048 105.921 191.197 106.464 191.197 107.063C191.197 107.491 191.12 107.909 190.964 108.318C190.813 108.724 190.548 109.176 190.169 109.676C189.794 110.173 189.273 110.779 188.606 111.494L185.993 114.29V114.381H191.402V115.631H184.061ZM201.276 118.699C200.116 118.699 199.092 118.54 198.202 118.222C197.312 117.907 196.563 117.443 195.957 116.83C195.351 116.216 194.893 115.464 194.582 114.574C194.272 113.684 194.116 112.665 194.116 111.517C194.116 110.407 194.274 109.415 194.588 108.54C194.906 107.665 195.366 106.923 195.969 106.313C196.575 105.699 197.31 105.231 198.173 104.909C199.041 104.587 200.022 104.426 201.116 104.426C202.181 104.426 203.113 104.601 203.912 104.949C204.715 105.294 205.385 105.762 205.923 106.352C206.465 106.94 206.87 107.601 207.139 108.335C207.412 109.07 207.548 109.828 207.548 110.608C207.548 111.157 207.522 111.714 207.469 112.279C207.416 112.843 207.304 113.362 207.134 113.835C206.963 114.305 206.7 114.684 206.344 114.972C205.991 115.26 205.514 115.404 204.912 115.404C204.647 115.404 204.355 115.362 204.037 115.279C203.719 115.195 203.437 115.057 203.19 114.864C202.944 114.671 202.798 114.411 202.753 114.085H202.685C202.594 114.305 202.454 114.513 202.264 114.71C202.079 114.907 201.834 115.065 201.531 115.182C201.232 115.299 200.866 115.351 200.435 115.335C199.942 115.316 199.509 115.207 199.134 115.006C198.759 114.801 198.444 114.525 198.19 114.176C197.94 113.824 197.751 113.417 197.622 112.955C197.497 112.489 197.435 111.987 197.435 111.449C197.435 110.938 197.51 110.47 197.662 110.046C197.813 109.621 198.024 109.25 198.293 108.932C198.565 108.614 198.884 108.36 199.247 108.171C199.615 107.977 200.01 107.858 200.435 107.813C200.813 107.775 201.158 107.792 201.469 107.864C201.779 107.932 202.035 108.036 202.236 108.176C202.437 108.313 202.563 108.464 202.616 108.631H202.685V107.994H203.889V113.131C203.889 113.449 203.978 113.729 204.156 113.972C204.334 114.214 204.594 114.335 204.935 114.335C205.321 114.335 205.616 114.203 205.821 113.938C206.029 113.673 206.171 113.263 206.247 112.71C206.327 112.157 206.366 111.449 206.366 110.585C206.366 110.078 206.296 109.578 206.156 109.085C206.02 108.589 205.812 108.125 205.531 107.693C205.255 107.262 204.904 106.881 204.48 106.551C204.056 106.222 203.558 105.964 202.986 105.779C202.418 105.589 201.772 105.494 201.048 105.494C200.158 105.494 199.361 105.633 198.656 105.909C197.955 106.182 197.359 106.582 196.866 107.108C196.378 107.631 196.005 108.267 195.747 109.017C195.493 109.763 195.366 110.612 195.366 111.563C195.366 112.529 195.493 113.387 195.747 114.137C196.005 114.887 196.384 115.519 196.884 116.034C197.387 116.549 198.01 116.94 198.753 117.205C199.495 117.474 200.351 117.608 201.321 117.608C201.738 117.608 202.149 117.568 202.554 117.489C202.959 117.409 203.317 117.322 203.628 117.227C203.938 117.133 204.162 117.063 204.298 117.017L204.616 118.063C204.382 118.161 204.075 118.26 203.696 118.358C203.321 118.457 202.92 118.538 202.491 118.602C202.067 118.667 201.662 118.699 201.276 118.699ZM200.616 114.176C201.124 114.176 201.535 114.074 201.849 113.869C202.164 113.665 202.393 113.356 202.537 112.943C202.681 112.53 202.753 112.01 202.753 111.381C202.753 110.744 202.673 110.248 202.514 109.892C202.355 109.536 202.12 109.286 201.81 109.142C201.499 108.998 201.116 108.926 200.662 108.926C200.23 108.926 199.861 109.04 199.554 109.267C199.251 109.491 199.018 109.79 198.855 110.165C198.696 110.536 198.616 110.941 198.616 111.381C198.616 111.866 198.681 112.322 198.81 112.75C198.938 113.174 199.149 113.519 199.44 113.784C199.732 114.046 200.124 114.176 200.616 114.176ZM210.355 115.631V106.904H211.696V115.631H210.355ZM211.037 105.449C210.776 105.449 210.55 105.36 210.361 105.182C210.175 105.004 210.083 104.79 210.083 104.54C210.083 104.29 210.175 104.076 210.361 103.898C210.55 103.72 210.776 103.631 211.037 103.631C211.299 103.631 211.522 103.72 211.708 103.898C211.897 104.076 211.992 104.29 211.992 104.54C211.992 104.79 211.897 105.004 211.708 105.182C211.522 105.36 211.299 105.449 211.037 105.449ZM216.293 110.381V115.631H214.952V106.904H216.248V108.267H216.361C216.566 107.824 216.877 107.468 217.293 107.199C217.71 106.926 218.248 106.79 218.907 106.79C219.498 106.79 220.015 106.911 220.458 107.154C220.901 107.392 221.246 107.756 221.492 108.244C221.738 108.729 221.861 109.343 221.861 110.085V115.631H220.52V110.176C220.52 109.491 220.342 108.957 219.986 108.574C219.63 108.188 219.142 107.994 218.52 107.994C218.092 107.994 217.71 108.087 217.373 108.273C217.039 108.459 216.776 108.729 216.583 109.085C216.39 109.441 216.293 109.873 216.293 110.381ZM228.998 106.904V108.04H224.293V106.904H228.998ZM225.703 115.631V105.699C225.703 105.199 225.82 104.782 226.055 104.449C226.29 104.116 226.595 103.866 226.97 103.699C227.345 103.532 227.74 103.449 228.157 103.449C228.487 103.449 228.756 103.476 228.964 103.529C229.172 103.582 229.328 103.631 229.43 103.676L229.043 104.835C228.975 104.813 228.881 104.784 228.759 104.75C228.642 104.716 228.487 104.699 228.293 104.699C227.85 104.699 227.53 104.811 227.333 105.034C227.14 105.258 227.043 105.585 227.043 106.017V115.631H225.703ZM234.863 115.813C234.075 115.813 233.384 115.625 232.789 115.25C232.199 114.875 231.736 114.351 231.403 113.676C231.074 113.002 230.909 112.214 230.909 111.313C230.909 110.404 231.074 109.61 231.403 108.932C231.736 108.254 232.199 107.727 232.789 107.352C233.384 106.977 234.075 106.79 234.863 106.79C235.651 106.79 236.341 106.977 236.932 107.352C237.526 107.727 237.988 108.254 238.318 108.932C238.651 109.61 238.818 110.404 238.818 111.313C238.818 112.214 238.651 113.002 238.318 113.676C237.988 114.351 237.526 114.875 236.932 115.25C236.341 115.625 235.651 115.813 234.863 115.813ZM234.863 114.608C235.462 114.608 235.954 114.455 236.341 114.148C236.727 113.841 237.013 113.438 237.199 112.938C237.384 112.438 237.477 111.896 237.477 111.313C237.477 110.729 237.384 110.186 237.199 109.682C237.013 109.178 236.727 108.771 236.341 108.46C235.954 108.15 235.462 107.994 234.863 107.994C234.265 107.994 233.772 108.15 233.386 108.46C233 108.771 232.714 109.178 232.528 109.682C232.343 110.186 232.25 110.729 232.25 111.313C232.25 111.896 232.343 112.438 232.528 112.938C232.714 113.438 233 113.841 233.386 114.148C233.772 114.455 234.265 114.608 234.863 114.608ZM242.642 115.722C242.362 115.722 242.121 115.621 241.92 115.421C241.72 115.22 241.619 114.979 241.619 114.699C241.619 114.419 241.72 114.178 241.92 113.977C242.121 113.777 242.362 113.676 242.642 113.676C242.922 113.676 243.163 113.777 243.364 113.977C243.564 114.178 243.665 114.419 243.665 114.699C243.665 114.885 243.617 115.055 243.523 115.21C243.432 115.366 243.309 115.491 243.153 115.585C243.002 115.676 242.831 115.722 242.642 115.722ZM250.416 115.813C249.598 115.813 248.894 115.619 248.303 115.233C247.712 114.847 247.257 114.315 246.939 113.637C246.621 112.959 246.462 112.184 246.462 111.313C246.462 110.426 246.625 109.644 246.951 108.966C247.28 108.284 247.738 107.752 248.326 107.369C248.916 106.983 249.606 106.79 250.394 106.79C251.007 106.79 251.56 106.904 252.053 107.131C252.545 107.358 252.949 107.676 253.263 108.085C253.577 108.494 253.773 108.972 253.848 109.517H252.507C252.405 109.119 252.178 108.767 251.826 108.46C251.477 108.15 251.007 107.994 250.416 107.994C249.894 107.994 249.435 108.131 249.041 108.404C248.651 108.673 248.346 109.053 248.127 109.546C247.911 110.034 247.803 110.608 247.803 111.267C247.803 111.941 247.909 112.529 248.121 113.029C248.337 113.529 248.64 113.917 249.03 114.193C249.424 114.47 249.886 114.608 250.416 114.608C250.765 114.608 251.081 114.548 251.365 114.426C251.649 114.305 251.89 114.131 252.087 113.904C252.284 113.676 252.424 113.404 252.507 113.085H253.848C253.773 113.601 253.585 114.065 253.286 114.477C252.99 114.887 252.598 115.212 252.11 115.455C251.625 115.693 251.06 115.813 250.416 115.813ZM260.154 115.813C259.366 115.813 258.675 115.625 258.08 115.25C257.489 114.875 257.027 114.351 256.694 113.676C256.364 113.002 256.199 112.214 256.199 111.313C256.199 110.404 256.364 109.61 256.694 108.932C257.027 108.254 257.489 107.727 258.08 107.352C258.675 106.977 259.366 106.79 260.154 106.79C260.942 106.79 261.631 106.977 262.222 107.352C262.817 107.727 263.279 108.254 263.609 108.932C263.942 109.61 264.109 110.404 264.109 111.313C264.109 112.214 263.942 113.002 263.609 113.676C263.279 114.351 262.817 114.875 262.222 115.25C261.631 115.625 260.942 115.813 260.154 115.813ZM260.154 114.608C260.752 114.608 261.245 114.455 261.631 114.148C262.018 113.841 262.304 113.438 262.489 112.938C262.675 112.438 262.768 111.896 262.768 111.313C262.768 110.729 262.675 110.186 262.489 109.682C262.304 109.178 262.018 108.771 261.631 108.46C261.245 108.15 260.752 107.994 260.154 107.994C259.555 107.994 259.063 108.15 258.677 108.46C258.29 108.771 258.004 109.178 257.819 109.682C257.633 110.186 257.54 110.729 257.54 111.313C257.54 111.896 257.633 112.438 257.819 112.938C258.004 113.438 258.29 113.841 258.677 114.148C259.063 114.455 259.555 114.608 260.154 114.608ZM266.955 115.631V106.904H268.251V108.267H268.364C268.546 107.801 268.84 107.44 269.245 107.182C269.65 106.921 270.137 106.79 270.705 106.79C271.281 106.79 271.76 106.921 272.143 107.182C272.529 107.44 272.83 107.801 273.046 108.267H273.137C273.361 107.816 273.696 107.459 274.143 107.193C274.59 106.924 275.126 106.79 275.751 106.79C276.531 106.79 277.169 107.034 277.666 107.523C278.162 108.008 278.41 108.763 278.41 109.79V115.631H277.069V109.79C277.069 109.146 276.893 108.686 276.541 108.409C276.188 108.133 275.774 107.994 275.296 107.994C274.683 107.994 274.207 108.18 273.87 108.551C273.533 108.919 273.364 109.385 273.364 109.949V115.631H272.001V109.654C272.001 109.157 271.84 108.758 271.518 108.455C271.196 108.148 270.781 107.994 270.274 107.994C269.925 107.994 269.599 108.087 269.296 108.273C268.997 108.459 268.755 108.716 268.569 109.046C268.387 109.371 268.296 109.748 268.296 110.176V115.631H266.955Z" fill="white"/>
<path d="M54 150.631C49.5835 150.631 46 153.5 46 157.036C46 162.73 54 170.558 54 170.558C54 170.558 62 162.73 62 157.036C62 153.5 58.4165 150.631 54 150.631ZM54 160.594C53.3671 160.594 52.7484 160.428 52.2222 160.115C51.6959 159.802 51.2858 159.357 51.0436 158.837C50.8014 158.317 50.738 157.745 50.8615 157.192C50.985 156.64 51.2897 156.133 51.7373 155.735C52.1848 155.337 52.755 155.066 53.3757 154.956C53.9965 154.846 54.6399 154.902 55.2246 155.118C55.8093 155.333 56.3091 155.698 56.6607 156.166C57.0123 156.634 57.2 157.185 57.2 157.748C57.1991 158.502 56.8616 159.226 56.2617 159.76C55.6618 160.293 54.8484 160.594 54 160.594Z" fill="white"/>
<path d="M96.2955 155.457V167.094H94.8864V156.935H94.8182L91.9773 158.821V157.389L94.8864 155.457H96.2955ZM100.442 167.094V166.071L104.283 161.866C104.734 161.374 105.105 160.946 105.397 160.582C105.688 160.215 105.904 159.87 106.044 159.548C106.188 159.223 106.26 158.882 106.26 158.526C106.26 158.116 106.162 157.762 105.965 157.463C105.772 157.164 105.506 156.933 105.169 156.77C104.832 156.607 104.453 156.526 104.033 156.526C103.586 156.526 103.196 156.618 102.863 156.804C102.533 156.986 102.277 157.241 102.095 157.571C101.917 157.901 101.828 158.287 101.828 158.73H100.488C100.488 158.048 100.645 157.45 100.959 156.935C101.273 156.42 101.702 156.018 102.243 155.73C102.789 155.442 103.4 155.298 104.078 155.298C104.76 155.298 105.364 155.442 105.891 155.73C106.417 156.018 106.83 156.406 107.13 156.895C107.429 157.384 107.578 157.927 107.578 158.526C107.578 158.954 107.501 159.372 107.345 159.781C107.194 160.187 106.929 160.639 106.55 161.139C106.175 161.635 105.654 162.241 104.988 162.957L102.374 165.753V165.844H107.783V167.094H100.442ZM114.861 167.253C114.111 167.253 113.443 167.124 112.856 166.866C112.272 166.609 111.808 166.251 111.464 165.793C111.123 165.33 110.937 164.795 110.907 164.185H112.339C112.369 164.56 112.498 164.884 112.725 165.156C112.952 165.425 113.25 165.634 113.617 165.781C113.984 165.929 114.392 166.003 114.839 166.003C115.339 166.003 115.782 165.916 116.168 165.741C116.555 165.567 116.858 165.325 117.077 165.014C117.297 164.704 117.407 164.344 117.407 163.935C117.407 163.507 117.301 163.13 117.089 162.804C116.877 162.474 116.566 162.217 116.157 162.031C115.748 161.846 115.248 161.753 114.657 161.753H113.725V160.503H114.657C115.119 160.503 115.524 160.42 115.873 160.253C116.225 160.086 116.5 159.851 116.697 159.548C116.897 159.245 116.998 158.889 116.998 158.48C116.998 158.086 116.911 157.743 116.736 157.452C116.562 157.16 116.316 156.933 115.998 156.77C115.683 156.607 115.312 156.526 114.884 156.526C114.483 156.526 114.104 156.599 113.748 156.747C113.395 156.891 113.108 157.101 112.884 157.378C112.661 157.651 112.539 157.98 112.52 158.366H111.157C111.18 157.757 111.363 157.223 111.708 156.764C112.053 156.302 112.503 155.942 113.06 155.685C113.621 155.427 114.236 155.298 114.907 155.298C115.627 155.298 116.244 155.444 116.759 155.736C117.274 156.024 117.67 156.404 117.947 156.878C118.223 157.351 118.361 157.863 118.361 158.412C118.361 159.067 118.189 159.626 117.844 160.088C117.503 160.55 117.039 160.87 116.452 161.048V161.139C117.187 161.26 117.761 161.573 118.174 162.077C118.587 162.577 118.793 163.196 118.793 163.935C118.793 164.567 118.621 165.135 118.276 165.639C117.935 166.139 117.469 166.533 116.878 166.821C116.288 167.109 115.615 167.253 114.861 167.253ZM128.581 155.457V167.094H127.24V155.457H128.581ZM135.382 167.276C134.594 167.276 133.903 167.088 133.308 166.713C132.717 166.338 132.255 165.813 131.922 165.139C131.592 164.465 131.428 163.677 131.428 162.776C131.428 161.866 131.592 161.073 131.922 160.395C132.255 159.717 132.717 159.19 133.308 158.815C133.903 158.44 134.594 158.253 135.382 158.253C136.17 158.253 136.859 158.44 137.45 158.815C138.045 159.19 138.507 159.717 138.837 160.395C139.17 161.073 139.337 161.866 139.337 162.776C139.337 163.677 139.17 164.465 138.837 165.139C138.507 165.813 138.045 166.338 137.45 166.713C136.859 167.088 136.17 167.276 135.382 167.276ZM135.382 166.071C135.981 166.071 136.473 165.918 136.859 165.611C137.246 165.304 137.532 164.901 137.717 164.401C137.903 163.901 137.996 163.359 137.996 162.776C137.996 162.192 137.903 161.649 137.717 161.145C137.532 160.641 137.246 160.234 136.859 159.923C136.473 159.613 135.981 159.457 135.382 159.457C134.784 159.457 134.291 159.613 133.905 159.923C133.518 160.234 133.232 160.641 133.047 161.145C132.861 161.649 132.768 162.192 132.768 162.776C132.768 163.359 132.861 163.901 133.047 164.401C133.232 164.901 133.518 165.304 133.905 165.611C134.291 165.918 134.784 166.071 135.382 166.071ZM142.184 167.094V158.366H143.479V159.685H143.57C143.729 159.253 144.017 158.902 144.434 158.634C144.85 158.365 145.32 158.23 145.843 158.23C145.941 158.23 146.064 158.232 146.212 158.236C146.36 158.24 146.471 158.245 146.547 158.253V159.616C146.502 159.605 146.398 159.588 146.235 159.565C146.076 159.539 145.907 159.526 145.729 159.526C145.305 159.526 144.926 159.615 144.593 159.793C144.263 159.967 144.002 160.209 143.809 160.52C143.619 160.827 143.524 161.177 143.524 161.571V167.094H142.184ZM152.33 167.276C151.489 167.276 150.764 167.09 150.154 166.719C149.548 166.344 149.08 165.821 148.751 165.151C148.425 164.476 148.262 163.692 148.262 162.798C148.262 161.904 148.425 161.116 148.751 160.435C149.08 159.749 149.538 159.215 150.126 158.832C150.716 158.446 151.406 158.253 152.194 158.253C152.648 158.253 153.097 158.329 153.54 158.48C153.984 158.632 154.387 158.878 154.751 159.219C155.114 159.556 155.404 160.003 155.62 160.56C155.836 161.116 155.944 161.802 155.944 162.616V163.185H149.216V162.026H154.58C154.58 161.533 154.482 161.094 154.285 160.707C154.091 160.321 153.815 160.016 153.455 159.793C153.099 159.569 152.679 159.457 152.194 159.457C151.66 159.457 151.198 159.59 150.807 159.855C150.421 160.116 150.124 160.457 149.915 160.878C149.707 161.298 149.603 161.749 149.603 162.23V163.003C149.603 163.662 149.716 164.221 149.944 164.679C150.175 165.134 150.495 165.48 150.904 165.719C151.313 165.954 151.788 166.071 152.33 166.071C152.682 166.071 153.001 166.022 153.285 165.923C153.573 165.821 153.821 165.67 154.029 165.469C154.237 165.264 154.398 165.01 154.512 164.707L155.807 165.071C155.671 165.51 155.442 165.897 155.12 166.23C154.798 166.56 154.4 166.817 153.927 167.003C153.453 167.185 152.921 167.276 152.33 167.276ZM158.784 167.094V158.366H160.079V159.73H160.193C160.374 159.264 160.668 158.902 161.073 158.645C161.479 158.384 161.965 158.253 162.534 158.253C163.109 158.253 163.588 158.384 163.971 158.645C164.357 158.902 164.659 159.264 164.874 159.73H164.965C165.189 159.279 165.524 158.921 165.971 158.656C166.418 158.387 166.954 158.253 167.579 158.253C168.359 158.253 168.998 158.497 169.494 158.986C169.99 159.471 170.238 160.226 170.238 161.253V167.094H168.897V161.253C168.897 160.609 168.721 160.149 168.369 159.872C168.016 159.596 167.602 159.457 167.124 159.457C166.511 159.457 166.035 159.643 165.698 160.014C165.361 160.382 165.193 160.848 165.193 161.412V167.094H163.829V161.116C163.829 160.62 163.668 160.221 163.346 159.918C163.024 159.611 162.609 159.457 162.102 159.457C161.753 159.457 161.427 159.55 161.124 159.736C160.825 159.921 160.583 160.179 160.397 160.509C160.215 160.834 160.124 161.211 160.124 161.639V167.094H158.784ZM178.79 167.094V158.366H180.131V167.094H178.79ZM179.472 156.912C179.21 156.912 178.985 156.823 178.795 156.645C178.61 156.467 178.517 156.253 178.517 156.003C178.517 155.753 178.61 155.539 178.795 155.361C178.985 155.183 179.21 155.094 179.472 155.094C179.733 155.094 179.956 155.183 180.142 155.361C180.331 155.539 180.426 155.753 180.426 156.003C180.426 156.253 180.331 156.467 180.142 156.645C179.956 156.823 179.733 156.912 179.472 156.912ZM183.387 170.366V158.366H184.682V159.753H184.841C184.94 159.601 185.076 159.408 185.25 159.173C185.428 158.935 185.682 158.723 186.012 158.537C186.345 158.348 186.796 158.253 187.364 158.253C188.099 158.253 188.746 158.437 189.307 158.804C189.868 159.171 190.305 159.692 190.62 160.366C190.934 161.041 191.091 161.836 191.091 162.753C191.091 163.677 190.934 164.478 190.62 165.156C190.305 165.83 189.87 166.353 189.313 166.724C188.756 167.092 188.114 167.276 187.387 167.276C186.826 167.276 186.377 167.183 186.04 166.997C185.703 166.808 185.443 166.594 185.262 166.355C185.08 166.113 184.94 165.912 184.841 165.753H184.728V170.366H183.387ZM184.705 162.73C184.705 163.389 184.801 163.971 184.995 164.474C185.188 164.974 185.47 165.366 185.841 165.651C186.212 165.931 186.667 166.071 187.205 166.071C187.765 166.071 188.233 165.923 188.608 165.628C188.987 165.329 189.271 164.927 189.461 164.423C189.654 163.916 189.75 163.351 189.75 162.73C189.75 162.116 189.656 161.563 189.466 161.071C189.281 160.575 188.998 160.183 188.62 159.895C188.245 159.603 187.773 159.457 187.205 159.457C186.659 159.457 186.201 159.596 185.83 159.872C185.459 160.145 185.178 160.527 184.989 161.02C184.8 161.509 184.705 162.079 184.705 162.73ZM200.118 160.321L198.914 160.662C198.838 160.461 198.726 160.266 198.579 160.077C198.435 159.884 198.238 159.724 197.988 159.599C197.738 159.474 197.418 159.412 197.028 159.412C196.493 159.412 196.048 159.535 195.692 159.781C195.34 160.024 195.164 160.332 195.164 160.707C195.164 161.041 195.285 161.304 195.528 161.497C195.77 161.69 196.149 161.851 196.664 161.98L197.959 162.298C198.74 162.488 199.321 162.777 199.704 163.168C200.086 163.554 200.278 164.052 200.278 164.662C200.278 165.162 200.134 165.609 199.846 166.003C199.562 166.397 199.164 166.707 198.653 166.935C198.141 167.162 197.546 167.276 196.868 167.276C195.978 167.276 195.242 167.082 194.658 166.696C194.075 166.31 193.706 165.745 193.55 165.003L194.823 164.685C194.944 165.154 195.173 165.507 195.511 165.741C195.851 165.976 196.296 166.094 196.846 166.094C197.471 166.094 197.967 165.961 198.334 165.696C198.706 165.427 198.891 165.105 198.891 164.73C198.891 164.427 198.785 164.173 198.573 163.969C198.361 163.76 198.035 163.605 197.596 163.503L196.141 163.162C195.342 162.973 194.755 162.679 194.38 162.281C194.009 161.88 193.823 161.378 193.823 160.776C193.823 160.283 193.961 159.848 194.238 159.469C194.518 159.09 194.899 158.793 195.38 158.577C195.865 158.361 196.414 158.253 197.028 158.253C197.891 158.253 198.569 158.442 199.062 158.821C199.558 159.2 199.91 159.7 200.118 160.321ZM208.596 163.526V158.366H209.937V167.094H208.596V165.616H208.505C208.301 166.06 207.982 166.437 207.551 166.747C207.119 167.054 206.573 167.207 205.914 167.207C205.369 167.207 204.884 167.088 204.46 166.849C204.035 166.607 203.702 166.243 203.46 165.759C203.217 165.27 203.096 164.654 203.096 163.912V158.366H204.437V163.821C204.437 164.457 204.615 164.965 204.971 165.344C205.331 165.723 205.789 165.912 206.346 165.912C206.679 165.912 207.018 165.827 207.363 165.656C207.712 165.486 208.003 165.224 208.238 164.872C208.477 164.52 208.596 164.071 208.596 163.526ZM213.193 167.094V158.366H214.488V159.73H214.602C214.784 159.264 215.077 158.902 215.483 158.645C215.888 158.384 216.375 158.253 216.943 158.253C217.519 158.253 217.998 158.384 218.38 158.645C218.767 158.902 219.068 159.264 219.284 159.73H219.375C219.598 159.279 219.933 158.921 220.38 158.656C220.827 158.387 221.363 158.253 221.988 158.253C222.769 158.253 223.407 158.497 223.903 158.986C224.399 159.471 224.647 160.226 224.647 161.253V167.094H223.307V161.253C223.307 160.609 223.13 160.149 222.778 159.872C222.426 159.596 222.011 159.457 221.534 159.457C220.92 159.457 220.445 159.643 220.108 160.014C219.771 160.382 219.602 160.848 219.602 161.412V167.094H218.238V161.116C218.238 160.62 218.077 160.221 217.755 159.918C217.433 159.611 217.019 159.457 216.511 159.457C216.163 159.457 215.837 159.55 215.534 159.736C215.235 159.921 214.992 160.179 214.807 160.509C214.625 160.834 214.534 161.211 214.534 161.639V167.094H213.193ZM233.199 167.094V158.366H234.495V159.685H234.586C234.745 159.253 235.032 158.902 235.449 158.634C235.866 158.365 236.336 158.23 236.858 158.23C236.957 158.23 237.08 158.232 237.228 158.236C237.375 158.24 237.487 158.245 237.563 158.253V159.616C237.517 159.605 237.413 159.588 237.25 159.565C237.091 159.539 236.923 159.526 236.745 159.526C236.32 159.526 235.942 159.615 235.608 159.793C235.279 159.967 235.017 160.209 234.824 160.52C234.635 160.827 234.54 161.177 234.54 161.571V167.094H233.199ZM243.232 167.276C242.444 167.276 241.753 167.088 241.158 166.713C240.567 166.338 240.105 165.813 239.772 165.139C239.442 164.465 239.278 163.677 239.278 162.776C239.278 161.866 239.442 161.073 239.772 160.395C240.105 159.717 240.567 159.19 241.158 158.815C241.753 158.44 242.444 158.253 243.232 158.253C244.02 158.253 244.709 158.44 245.3 158.815C245.895 159.19 246.357 159.717 246.687 160.395C247.02 161.073 247.187 161.866 247.187 162.776C247.187 163.677 247.02 164.465 246.687 165.139C246.357 165.813 245.895 166.338 245.3 166.713C244.709 167.088 244.02 167.276 243.232 167.276ZM243.232 166.071C243.831 166.071 244.323 165.918 244.709 165.611C245.096 165.304 245.382 164.901 245.567 164.401C245.753 163.901 245.846 163.359 245.846 162.776C245.846 162.192 245.753 161.649 245.567 161.145C245.382 160.641 245.096 160.234 244.709 159.923C244.323 159.613 243.831 159.457 243.232 159.457C242.634 159.457 242.141 159.613 241.755 159.923C241.368 160.234 241.082 160.641 240.897 161.145C240.711 161.649 240.618 162.192 240.618 162.776C240.618 163.359 240.711 163.901 240.897 164.401C241.082 164.901 241.368 165.304 241.755 165.611C242.141 165.918 242.634 166.071 243.232 166.071ZM252.602 167.298C252.049 167.298 251.547 167.194 251.096 166.986C250.645 166.774 250.287 166.469 250.022 166.071C249.757 165.67 249.624 165.185 249.624 164.616C249.624 164.116 249.723 163.711 249.92 163.401C250.117 163.086 250.38 162.84 250.71 162.662C251.039 162.484 251.403 162.351 251.801 162.264C252.202 162.173 252.605 162.101 253.011 162.048C253.541 161.98 253.971 161.929 254.301 161.895C254.634 161.857 254.876 161.795 255.028 161.707C255.183 161.62 255.261 161.469 255.261 161.253V161.207C255.261 160.647 255.107 160.211 254.801 159.901C254.498 159.59 254.037 159.435 253.42 159.435C252.78 159.435 252.278 159.575 251.914 159.855C251.551 160.135 251.295 160.435 251.147 160.753L249.874 160.298C250.102 159.768 250.405 159.355 250.784 159.06C251.166 158.76 251.583 158.552 252.034 158.435C252.488 158.313 252.935 158.253 253.374 158.253C253.655 158.253 253.977 158.287 254.34 158.355C254.708 158.42 255.062 158.554 255.403 158.759C255.748 158.963 256.034 159.272 256.261 159.685C256.488 160.098 256.602 160.651 256.602 161.344V167.094H255.261V165.912H255.193C255.102 166.101 254.95 166.304 254.738 166.52C254.526 166.736 254.244 166.92 253.891 167.071C253.539 167.223 253.109 167.298 252.602 167.298ZM252.806 166.094C253.337 166.094 253.784 165.99 254.147 165.781C254.515 165.573 254.791 165.304 254.977 164.974C255.166 164.645 255.261 164.298 255.261 163.935V162.707C255.204 162.776 255.079 162.838 254.886 162.895C254.696 162.948 254.477 162.995 254.227 163.037C253.98 163.075 253.74 163.109 253.505 163.139C253.274 163.166 253.087 163.188 252.943 163.207C252.594 163.253 252.268 163.327 251.965 163.429C251.666 163.527 251.424 163.677 251.238 163.878C251.056 164.075 250.965 164.344 250.965 164.685C250.965 165.151 251.138 165.503 251.482 165.741C251.831 165.976 252.272 166.094 252.806 166.094ZM263.145 167.276C262.417 167.276 261.775 167.092 261.218 166.724C260.662 166.353 260.226 165.83 259.912 165.156C259.597 164.478 259.44 163.677 259.44 162.753C259.44 161.836 259.597 161.041 259.912 160.366C260.226 159.692 260.664 159.171 261.224 158.804C261.785 158.437 262.432 158.253 263.167 158.253C263.736 158.253 264.184 158.348 264.514 158.537C264.847 158.723 265.101 158.935 265.275 159.173C265.453 159.408 265.592 159.601 265.69 159.753H265.804V155.457H267.145V167.094H265.849V165.753H265.69C265.592 165.912 265.451 166.113 265.27 166.355C265.088 166.594 264.828 166.808 264.491 166.997C264.154 167.183 263.705 167.276 263.145 167.276ZM263.326 166.071C263.864 166.071 264.319 165.931 264.69 165.651C265.061 165.366 265.343 164.974 265.537 164.474C265.73 163.971 265.826 163.389 265.826 162.73C265.826 162.079 265.732 161.509 265.542 161.02C265.353 160.527 265.073 160.145 264.701 159.872C264.33 159.596 263.872 159.457 263.326 159.457C262.758 159.457 262.285 159.603 261.906 159.895C261.531 160.183 261.249 160.575 261.059 161.071C260.874 161.563 260.781 162.116 260.781 162.73C260.781 163.351 260.876 163.916 261.065 164.423C261.258 164.927 261.542 165.329 261.917 165.628C262.296 165.923 262.766 166.071 263.326 166.071Z" fill="white"/>
</svg>
